<svg xmlns:dc="http://purl.org/dc/elements/1.1/" xmlns:cc="http://creativecommons.org/ns#" xmlns:rdf="http://www.w3.org/1999/02/22-rdf-syntax-ns#" xmlns:svg="http://www.w3.org/2000/svg" xmlns="http://www.w3.org/2000/svg" xmlns:sodipodi="http://sodipodi.sourceforge.net/DTD/sodipodi-0.dtd" xmlns:inkscape="http://www.inkscape.org/namespaces/inkscape" viewBox="0 0 8.4666667 8.4666669" version="1.1" x="0px" y="0px"><svg:g><svg:path style="color:#000000;font-style:normal;font-variant:normal;font-weight:normal;font-stretch:normal;font-size:medium;line-height:normal;font-family:sans-serif;font-variant-ligatures:normal;font-variant-position:normal;font-variant-caps:normal;font-variant-numeric:normal;font-variant-alternates:normal;font-feature-settings:normal;text-indent:0;text-align:start;text-decoration:none;text-decoration-line:none;text-decoration-style:solid;text-decoration-color:#000000;letter-spacing:normal;word-spacing:normal;text-transform:none;writing-mode:lr-tb;direction:ltr;text-orientation:mixed;dominant-baseline:auto;baseline-shift:baseline;text-anchor:start;white-space:normal;shape-padding:0;clip-rule:nonzero;display:inline;overflow:visible;visibility:visible;opacity:1;isolation:auto;mix-blend-mode:normal;color-interpolation:sRGB;color-interpolation-filters:linearRGB;solid-color:#000000;solid-opacity:1;vector-effect:none;fill:#000000;fill-opacity:1;fill-rule:nonzero;stroke:none;stroke-width:0.5291667;stroke-linecap:round;stroke-linejoin:round;stroke-miterlimit:4;stroke-dasharray:none;stroke-dashoffset:0;stroke-opacity:1;color-rendering:auto;image-rendering:auto;shape-rendering:auto;text-rendering:auto;enable-background:accumulate" d="m 6.4415078,-0.00419292 a 0.26460981,0.26460981 0 0 0 -0.1813851,0.07648 L 0.98654305,5.3458671 a 0.26460981,0.26460981 0 0 0 -0.0780309,0.187068 l -0.007752,1.767851 A 0.26460981,0.26460981 0 0 0 1.166378,7.5664041 l 1.7673346,-0.0078 a 0.26460981,0.26460981 0 0 0 0.1860338,-0.07803 l 5.2730638,-5.27358 a 0.26460981,0.26460981 0 0 0 0,-0.373105 L 6.6332276,0.07228708 a 0.26460981,0.26460981 0 0 0 -0.1917198,-0.07596 z m 0.0062,0.63872 1.3849297,1.38492702 -0.6418209,0.641824 -1.3838952,-1.385965 z m -1.0159576,1.01544202 1.3849297,1.384929 -3.9940733,3.994587 -1.3906129,0.0057 0.00569,-1.390613 z m -5.18934697,6.291606 a 0.26500142,0.26500142 0 0 0 0.0273897,0.529167 H 7.3107046 a 0.2646485,0.2646485 0 0 0 0,-0.529167 H 0.2697921 a 0.26460984,0.26460984 0 0 0 -0.0273889,0 z"></svg:path></svg:g></svg>