<svg xmlns="http://www.w3.org/2000/svg" xmlns:xlink="http://www.w3.org/1999/xlink" viewBox="0 0 48 48" version="1.1" x="0px" y="0px"><title>icon/dots</title><desc>Created with Sketch.</desc><g stroke="none" stroke-width="1" fill="none" fill-rule="evenodd"><g fill="#000000"><path d="M16,27 C14.8954305,27 14,26.1045695 14,25 C14,23.8954305 14.8954305,23 16,23 C17.1045695,23 18,23.8954305 18,25 C18,26.1045695 17.1045695,27 16,27 Z M24,27 C22.8954305,27 22,26.1045695 22,25 C22,23.8954305 22.8954305,23 24,23 C25.1045695,23 26,23.8954305 26,25 C26,26.1045695 25.1045695,27 24,27 Z M32,27 C30.8954305,27 30,26.1045695 30,25 C30,23.8954305 30.8954305,23 32,23 C33.1045695,23 34,23.8954305 34,25 C34,26.1045695 33.1045695,27 32,27 Z"></path></g></g></svg>