<svg xmlns="http://www.w3.org/2000/svg" viewBox="0 0 90 90" fill="none" x="0px" y="0px"><path d="M82.6715 84.9998H7.70852C6.76542 84.9998 6 84.2413 6 83.2982V14.8001C6 13.857 6.76542 13.0985 7.70852 13.0985H82.6715C83.6146 13.0985 84.38 13.8639 84.38 14.8001V83.2982C84.38 84.2345 83.6146 84.9998 82.6715 84.9998ZM9.41704 81.5897H80.9697V16.5018H9.41704V81.5897Z" fill="black"></path><path d="M25.1613 24.484C24.2182 24.484 23.4595 23.7186 23.4595 22.7823V6.70176C23.4595 5.75866 24.225 5.00012 25.1613 5.00012C26.1044 5.00012 26.8698 5.76549 26.8698 6.70176V22.7823C26.8698 23.7186 26.1044 24.484 25.1613 24.484Z" fill="black"></path><path d="M38.5293 24.4838C37.5862 24.4838 36.8208 23.7185 36.8208 22.7822V6.70164C36.8208 5.75853 37.5862 5 38.5293 5C39.4724 5 40.2312 5.76537 40.2312 6.70164V22.7822C40.2312 23.7185 39.4724 24.4838 38.5293 24.4838Z" fill="black"></path><path d="M51.8703 24.4838C50.9272 24.4838 50.1685 23.7185 50.1685 22.7822V6.70164C50.1685 5.75853 50.934 5 51.8703 5C52.8134 5 53.5788 5.76537 53.5788 6.70164V22.7822C53.5788 23.7185 52.8134 24.4838 51.8703 24.4838Z" fill="black"></path><path d="M65.2378 24.4838C64.2947 24.4838 63.5293 23.7185 63.5293 22.7822V6.70164C63.5293 5.75853 64.2947 5 65.2378 5C66.1809 5 66.9397 5.76537 66.9397 6.70164V22.7822C66.9397 23.7185 66.1741 24.4838 65.2378 24.4838Z" fill="black"></path></svg>