<svg xmlns="http://www.w3.org/2000/svg" xmlns:xlink="http://www.w3.org/1999/xlink" version="1.1" x="0px" y="0px" viewBox="0 0 98 98" style="enable-background:new 0 0 98 98;" xml:space="preserve"><path d="M82.7,22.2H63.8v-6.5c0-2.8-2.2-5-5-5H39.2c-2.8,0-5,2.2-5,5v6.5H15.3c-1.7,0-3,1.3-3,3s1.3,3,3,3h4.3l5,56.4  c0.1,1.5,1.4,2.7,3,2.7h42.9c1.6,0,2.9-1.2,3-2.7l5-56.4h4.4c1.7,0,3-1.3,3-3S84.4,22.2,82.7,22.2z M40.2,16.7h17.6v5.5H40.2V16.7z   M38.8,75.5c0,0-0.1,0-0.1,0c-1.6,0-2.9-1.3-3-2.9l-1.3-35.5c-0.1-1.7,1.2-3,2.9-3.1c1.7-0.1,3,1.2,3.1,2.9l1.3,35.5  C41.8,74,40.5,75.4,38.8,75.5z M52,72.5c0,1.7-1.3,3-3,3c-1.7,0-3-1.3-3-3V37c0-1.7,1.3-3,3-3c1.7,0,3,1.3,3,3V72.5z M62.3,72.6  c-0.1,1.6-1.4,2.9-3,2.9c0,0-0.1,0-0.1,0c-1.7-0.1-2.9-1.5-2.9-3.1l1.3-35.5c0.1-1.7,1.5-3,3.1-2.9c1.7,0.1,2.9,1.5,2.9,3.1  L62.3,72.6z"></path></svg>