<svg xmlns="http://www.w3.org/2000/svg" xmlns:xlink="http://www.w3.org/1999/xlink" version="1.1" x="0px" y="0px" viewBox="0 0 48 48" enable-background="new 0 0 48 48" xml:space="preserve"><polygon points="47.125,44.075 0.875,44.075 0.875,5.425 3.875,5.425 3.875,41.075 44.125,41.075 44.125,13.302 22.375,13.25   23.307,10.302 47.125,10.302 "></polygon><polygon points="22.375,13.25 18.523,6.141 20.75,3.925 24.625,11.085 "></polygon><polygon points="20.25,6.925 0.875,6.925 0.875,3.925 20.75,3.925 "></polygon><path d="M31.855,24.149l-6.91-6.406l-2.039,2.2l3.951,3.663c-8.483,0.342-9.856,5.332-11.659,11.919l-0.226,0.824l2.893,0.797  l0.227-0.829c1.76-6.434,2.642-9.604,9.098-9.734l-4.283,3.972l2.039,2.199l6.91-6.406l1.172-1.099L31.855,24.149z"></path></svg>