<svg xmlns="http://www.w3.org/2000/svg" viewBox="0 0 128 128" x="0px" y="0px"><title>13</title><g data-name="1"><path d="M106.9215,62.96946l-1.11926,1.22918c-1.59747,1.75763-3.70471,2.46411-4.70746,1.58319-1.00732-.88482-1.81927-1.59747-1.81927-1.59747v38.139a4.296,4.296,0,0,1-4.297,4.29559H78.66711a4.05908,4.05908,0,0,1-4.03381-4.29327V75.26053H55.00213v27.06519a4.29227,4.29227,0,0,1-4.29407,4.29407H35.31689a4.29289,4.29289,0,0,1-4.2948-4.29407V63.63932l-2.95142,2.64239a4.31914,4.31914,0,0,1-5.926-.45556l-.99011-1.03a4.17386,4.17386,0,0,1,.191-5.99823L60.82971,22.60447a4.90112,4.90112,0,0,1,6.39648-.073l39.35028,34.43085A4.1981,4.1981,0,0,1,106.9215,62.96946Z"></path></g></svg>