<svg xmlns="http://www.w3.org/2000/svg" data-name="Layer 1" viewBox="0 0 90 68.19" x="0px" y="0px"><title>01</title><path d="M92.64,60a52.42,52.42,0,0,0-4.51-6.94l-4.93-7a93.83,93.83,0,0,0-8.88-10.49h0L70.38,31.8h0a54.78,54.78,0,0,0-8.17-6.17h0A29.22,29.22,0,0,0,56.63,23h0a14.6,14.6,0,0,0-4-.73,23.66,23.66,0,0,0-2.85.09h0A22.71,22.71,0,0,0,43.21,24h0l-.54.23-1-.67a.67.67,0,0,0-1,.32L40,25.61l-.16.1-.61-.84A.67.67,0,0,0,38.1,25a11.28,11.28,0,0,0-.66,2.41l-.58-.95a.67.67,0,0,0-1.09-.07,5.83,5.83,0,0,0-.7,3.3c-.39.39-.95.89-1.44,1.32a32.89,32.89,0,0,0-3-11.21c-1.13-2.18-2.41-3.46-3.8-3.81-3-.73-8.63,7.41-9,8.52a11.42,11.42,0,0,0-.08,4.29,5.66,5.66,0,0,0-.81.17,5.59,5.59,0,0,0-1.23.55,2.48,2.48,0,0,0-1.11,0c-.4.13-.7.52-1,1.21A2.69,2.69,0,0,0,12.4,31a1.56,1.56,0,0,0-.64,1.13,2.54,2.54,0,0,0-1.1.27A1.71,1.71,0,0,0,10,33.71a2.24,2.24,0,0,0-.87.3c-.23.15-.53.47-.61,1.41a1.94,1.94,0,0,0-.66.26c-.27.18-.62.57-.64,1.9a8.61,8.61,0,0,0-.49,1l0,.06L5,44.08a.67.67,0,0,0,.07.55.67.67,0,0,0,0,.13,11.41,11.41,0,0,0,3.75,4.58L10,51.42a.64.64,0,0,0,.6.35.67.67,0,0,0,.59-.37l.2-.41.75,1.37a.65.65,0,0,0,.6.35.67.67,0,0,0,.59-.37l.06-.13.89,1.62a.64.64,0,0,0,.6.35.67.67,0,0,0,.59-.37l.44-.89.65,1.18a.65.65,0,0,0,.6.35.67.67,0,0,0,.59-.37l.32-.64.37.67a.68.68,0,0,0,.6.35.67.67,0,0,0,.59-.37l.27-.53a34.93,34.93,0,0,1,6.26,1.87l.11.06c-1.78,4.26-3.91,4.84-4.54,4.91a3.82,3.82,0,0,0-2.69,2.52,2.84,2.84,0,0,0,.11,2.85c.84,1,3.3,1.15,4.62,1.15H24a5.88,5.88,0,0,0,2.22,3.23c2,1.62,6.1-1.4,7.15-2.23,2-.61,3.74-4.26,5-7.71l1.29.75,1,.59A13.71,13.71,0,0,0,47.59,63c1.84-.19,4.22-.56,6.63-1,1.05,2.47.51,3.39-.11,4.45a5.11,5.11,0,0,0-.91,2.78A2.51,2.51,0,0,0,55,71.69a6,6,0,0,0,2,.3,7.63,7.63,0,0,0,2.47-.4,4.54,4.54,0,0,0,.16,1.76,2.49,2.49,0,0,0,1.74,1.73c1.52.43,3.09-1.1,4.62-2.58a8.8,8.8,0,0,1,2.09-1.71,2.07,2.07,0,0,0,1.4-1.19,1.8,1.8,0,0,0,.05-1.07c2.39-2.6,2.19-6.6,1.83-8.85A11,11,0,0,0,76.2,61,42.66,42.66,0,0,0,80.37,62a6.75,6.75,0,0,1,4.1,2.87,5.55,5.55,0,0,1,1,2.93,8.17,8.17,0,0,0-.58-.89C82,63.11,77.25,63.18,74,65.22c-3.59,2.25-5.84,7.15-2.77,13,2.31,4.42,6.49,5.86,10.24,5.86a13.7,13.7,0,0,0,6-1.32C99.42,76.64,93.87,62.73,92.64,60ZM69.88,33.18l2.85,2.73c-2.37,1.37-5.65,3.57-6.2,5.5a9.52,9.52,0,0,1-2.37,3.46c.06-.3.12-.65.19-1a32.38,32.38,0,0,1,1.48-6.09C66.5,36.18,68.63,34.24,69.88,33.18ZM55,36.4c-.13-1-.26-1.95-.34-2.9-.16-1.9.92-5.15,1.7-7.52.17-.52.33-1,.48-1.46a28.59,28.59,0,0,1,4,1.88c-1.33,2.1-3.54,6-3.54,7.29,0,5-.41,8.55-1.09,9.53a9.08,9.08,0,0,0-1,2.22,14.9,14.9,0,0,1,.11-1.89A28.5,28.5,0,0,0,55,36.4Zm-8.36,7.31a13.08,13.08,0,0,0-1.26-2.51c-.57-.78-1.85-3.35-1.49-10.46.09-1.79.16-3.7.21-5.67a23.1,23.1,0,0,1,4.79-1.27C47.7,28,46.38,33,46.38,34.63c0,.58,0,1.24,0,1.95A34.54,34.54,0,0,0,46.65,43.71ZM24.94,64.31a2.62,2.62,0,0,0-.88,1.26c-1.64,0-3.49-.22-3.86-.66a1.75,1.75,0,0,1,.11-1.5c.36-.91,1.05-1.63,1.6-1.69,1.05-.12,3.64-.93,5.65-5.76l2.22.84-2.14,5.35h0A11.26,11.26,0,0,0,24.94,64.31Zm7.17-6.63a16.38,16.38,0,0,1-.87,1.8c-1.1,2-1.37,2.09-2,2.2L31,57.27ZM59.7,70a5.43,5.43,0,0,1-4.2.43c-.86-.31-1-.81-1-1.16a3.84,3.84,0,0,1,.72-2.1c.69-1.16,1.45-2.48.31-5.37l3.73-.69,1.41,7.13a.63.63,0,0,0,0,.06h0a5.71,5.71,0,0,0-.84,1.53A.67.67,0,0,0,59.7,70Zm2.15-3-1.22-6.19,3.55-.71a17.74,17.74,0,0,1,.35,2.09C64.62,63.91,63.12,65.63,61.84,67Zm25,14.55c-3.4,1.75-11.13,2.38-14.45-4-2.85-5.46-.55-9.48,2.3-11.26a7.65,7.65,0,0,1,4-1.18,6.15,6.15,0,0,1,5.06,2.55,6,6,0,0,1,1.11,5,3.38,3.38,0,0,1-3.25,2.75c-1.71.17-2.9-.27-3.56-1.28a3.07,3.07,0,0,1-.33-2.66,1.22,1.22,0,0,1,1.26-.3A1.58,1.58,0,0,1,80.08,73a.67.67,0,1,0,1.34,0,2.88,2.88,0,0,0-2.06-3,2.48,2.48,0,0,0-2.77.93A4.33,4.33,0,0,0,77,74.95c.65,1,2,2.16,4.81,1.89a4.71,4.71,0,0,0,4.42-3.76,6.7,6.7,0,0,0,.19-1.14.67.67,0,0,0,.09-.24c.43-2.56.72-5.26-.91-7.57a8,8,0,0,0-4.93-3.41,41.68,41.68,0,0,1-4.12-1.07.68.68,0,0,0-.21,0,9.26,9.26,0,0,1-5.48-1.93.67.67,0,0,0-1.08.69c0,.06,1.8,6.44-1.42,9.51a.68.68,0,0,0-.13.81.63.63,0,0,1,.05.44.89.89,0,0,1-.57.39,8.51,8.51,0,0,0-2.6,2c-1.07,1-2.54,2.47-3.32,2.25a1.18,1.18,0,0,1-.82-.85,4.77,4.77,0,0,1,.85-3.8c.25-.31.58-.67.92-1.06,1.39-1.54,3.3-3.64,3.15-5.94a20.17,20.17,0,0,0-.42-2.49c-.43-2.11-1-5-.19-6.17a1.28,1.28,0,0,1,.95-.52,19.07,19.07,0,0,1,5.54.58c2.56.5,5,1,6.48.17a.67.67,0,1,0-.63-1.18c-1.09.58-3.38.13-5.59-.3a19.91,19.91,0,0,0-6-.6,2.6,2.6,0,0,0-1.86,1.07c-1,1.41-.68,3.88-.25,6.12-2.46.5-11.5,2.32-16.45,2.83a12.36,12.36,0,0,1-6.14-1.29l-1-.57-1.53-.89a32.31,32.31,0,0,0,1.36-5.18c0-1.14-2-5.29-2.57-6.54a.67.67,0,1,0-1.21.58,34,34,0,0,1,2.43,6c0,1.27-3.29,12.34-5.9,12.92a.67.67,0,0,0-.28.13C31,68.16,28,69.84,27.07,69.1a4.17,4.17,0,0,1-1.79-2.77,1.23,1.23,0,0,1,.53-1l.08-.08a8.12,8.12,0,0,1,2.88-2.12c.23-.06.43-.09.61-.12,1.17-.19,1.66-.46,3-2.88a17.77,17.77,0,0,0,2-5.77.67.67,0,0,0-.19-.56c-1-1-3.65-4-3.92-6a.67.67,0,1,0-1.33.18c.33,2.48,3.19,5.65,4.05,6.56a16,16,0,0,1-.5,1.93l-5-1.89a.41.41,0,0,0-.3-.11l-.37-.14a32.66,32.66,0,0,0-7.31-2.12.67.67,0,0,0-.53.21h0a.67.67,0,0,0-.46-.34l-.64-.13a.67.67,0,0,0-.75.35l0,.09-.27-.5a.67.67,0,0,0-.4-.32l-.6-.19a.67.67,0,0,0-.8.34l-.2.4-.64-1.16a.67.67,0,0,0-.33-.3l-.39-.17a.67.67,0,0,0-.77.17l-.29-.54a.67.67,0,0,0-.28-.27l-.69-.37a.67.67,0,0,0-.89.22l-.6-1.1a.67.67,0,0,0-.19-.21A10.5,10.5,0,0,1,6.59,44.7a15.4,15.4,0,0,1,4-1.69C14,42,22,42.23,24.14,43a.67.67,0,0,0,.45-1.26c-2.32-.83-10.64-1.16-14.42,0a20.8,20.8,0,0,0-3.43,1.33l1.22-4a7.5,7.5,0,0,1,.49-1,.67.67,0,0,0,.09-.35,3.34,3.34,0,0,1,.1-1,2.48,2.48,0,0,1,.57-.1A.67.67,0,0,0,9.82,36a3.09,3.09,0,0,1,.1-.9,2.82,2.82,0,0,1,.72-.12.67.67,0,0,0,.62-.62,2.9,2.9,0,0,1,.14-.81,3.44,3.44,0,0,1,.93-.08.66.66,0,0,0,.68-.61,2.59,2.59,0,0,1,.14-.72,3.49,3.49,0,0,1,.94-.08.66.66,0,0,0,.66-.49,3,3,0,0,1,.31-.79,2.55,2.55,0,0,1,.63.05.67.67,0,0,0,.47-.09,4.63,4.63,0,0,1,1.11-.54c2.49-.73,8.23.69,8.29.7a.67.67,0,0,0,.33-1.3,33,33,0,0,0-6.75-.95H19a10.85,10.85,0,0,1,0-3.73c.58-1.56,5.87-8.09,7.47-7.69,1,.24,2,1.32,2.93,3.12a32.34,32.34,0,0,1,3,11.72.67.67,0,0,0,0,.67,8.84,8.84,0,0,1-.34,3.14l0,.05-1,3.18a.67.67,0,1,0,1.28.38l.95-3.15a10.55,10.55,0,0,0,.39-3.71c.59-.5,1.86-1.59,2.49-2.27a.67.67,0,0,0,.18-.47,10.66,10.66,0,0,1,.07-1.55l.26.42a.67.67,0,0,0,1,.15l.71-.59a.67.67,0,0,0,.24-.38c.1-.48.19-.87.27-1.2l.19.25a.67.67,0,0,0,.91.16l.85-.53a.67.67,0,0,0,.28-.34l.43-1.17.62.41a.67.67,0,0,0,.53.09c0,1.75-.12,3.44-.2,5-.28,5.38.34,9.4,1.74,11.32.91,1.24,2.25,5.3,2.69,6.76a.67.67,0,0,0,1.31-.11A15.84,15.84,0,0,0,48,43.58a32.19,32.19,0,0,1-.31-7c0-.72,0-1.39,0-2,0-1.19,1-5.17,2.62-11a22.18,22.18,0,0,1,2.28,0,12.64,12.64,0,0,1,3,.48c-.14.45-.31.94-.48,1.46-.87,2.62-1.95,5.88-1.77,8.06.08,1,.21,2,.34,3A27.48,27.48,0,0,1,54,43.39a13.26,13.26,0,0,0,.44,5.8.67.67,0,0,0,1.29-.14s.53-3.48,1.63-5.07,1.32-6.47,1.32-10.29c0-.64,1.51-3.71,3.35-6.6a53.52,53.52,0,0,1,6.85,5.17c-1.49,1.26-3.55,3.23-4.29,5A33.19,33.19,0,0,0,63,43.6c-.17.94-.31,1.74-.42,2.06l-.36,1.07a.67.67,0,0,0,1.05.73c.15-.12,3.75-3,4.51-5.69.33-1.15,2.57-3,5.9-4.89a92.13,92.13,0,0,1,8.39,10l4.94,7a52.58,52.58,0,0,1,4.37,6.7C92.57,63.09,97.73,76,86.86,81.59Z" transform="translate(-5 -15.9)"></path><path d="M17.51,31a4.42,4.42,0,1,0,4.42,4.42A4.42,4.42,0,0,0,17.51,31Zm0,7.5a3.08,3.08,0,1,1,3.08-3.08A3.08,3.08,0,0,1,17.51,38.49Z" transform="translate(-5 -15.9)"></path><circle cx="13.25" cy="18.78" r="0.98"></circle></svg>